<svg width="208" height="69" viewBox="0 0 208 69" fill="none" xmlns="http://www.w3.org/2000/svg">
<path fill-rule="evenodd" clip-rule="evenodd" d="M0.895508 26.3766C0.895508 12.2978 12.3499 0.841797 26.4303 0.841797C40.5107 0.841797 51.9634 12.2978 51.9634 26.3701C51.9634 45.2072 28.405 67.5966 27.4032 68.5421C27.1394 68.7891 26.7916 68.9266 26.4303 68.9266C26.0689 68.9266 25.7211 68.7891 25.4574 68.5421C24.4539 67.603 0.895508 45.2137 0.895508 26.3766ZM29.2913 14.747C28.7736 14.6204 28.2556 14.5293 27.7398 14.4722C25.4754 14.222 23.2535 14.6261 21.2911 15.553L26.0448 20.5484C27.0448 21.594 28.3969 22.2317 29.8398 22.3383C31.313 22.5542 32.6683 23.2663 33.6819 24.3569C35.6937 26.3351 36.2994 28.9661 35.0545 30.2109C33.8097 31.4557 31.172 30.8837 29.1803 28.8651C28.0908 27.8561 27.3788 26.5051 27.1623 25.036C27.0547 23.5856 26.4177 22.2253 25.3724 21.214L20.1139 16.1907C17.5088 17.7942 15.5094 20.3842 14.7254 23.5905C13.1447 30.0552 17.104 36.5773 23.5687 38.158C24.0233 38.2692 24.4781 38.3529 24.9315 38.4104C25.0635 38.4271 25.1953 38.4416 25.327 38.4538C27.3117 38.6386 29.2587 38.3224 31.0211 37.5944L25.9112 32.2156C25.5019 31.7769 25.0041 31.4301 24.4508 31.1981C23.8975 30.9661 23.3013 30.8542 22.7015 30.8697C22.3497 30.8779 21.9999 30.814 21.6736 30.6821C21.3473 30.5502 21.0514 30.353 20.8041 30.1027L15.6096 24.9148C15.57 24.8777 15.5385 24.8328 15.517 24.7831C15.4955 24.7333 15.4844 24.6796 15.4844 24.6254C15.4844 24.5712 15.4955 24.5175 15.517 24.4678C15.5385 24.418 15.57 24.3732 15.6096 24.336C15.6847 24.2641 15.7848 24.2239 15.8888 24.2239C15.9929 24.2239 16.0929 24.2641 16.1681 24.336L20.2054 28.3733C20.2694 28.434 20.3529 28.4698 20.4409 28.4743C20.5309 28.4696 20.6165 28.4339 20.6832 28.3733C20.7446 28.3104 20.7791 28.2258 20.7791 28.1378C20.7791 28.0498 20.7446 27.9653 20.6832 27.9023L16.6453 23.8653C16.6076 23.8278 16.5777 23.7832 16.5574 23.7342C16.537 23.6851 16.5265 23.6325 16.5265 23.5793C16.5265 23.5262 16.537 23.4736 16.5574 23.4245C16.5777 23.3754 16.6076 23.3308 16.6453 23.2933C16.7215 23.2209 16.8227 23.1805 16.9279 23.1805C17.0331 23.1805 17.1342 23.2209 17.2105 23.2933L21.2478 27.3306C21.278 27.3628 21.3145 27.3884 21.355 27.406C21.3955 27.4235 21.4392 27.4326 21.4833 27.4326C21.5275 27.4326 21.5711 27.4235 21.6116 27.406C21.6521 27.3884 21.6886 27.3628 21.7188 27.3306C21.7508 27.301 21.7764 27.2651 21.7938 27.2251C21.8113 27.1852 21.8203 27.1421 21.8203 27.0985C21.8203 27.0549 21.8113 27.0117 21.7938 26.9718C21.7764 26.9318 21.7508 26.8959 21.7188 26.8663L17.6815 22.829C17.6423 22.7931 17.611 22.7495 17.5896 22.7008C17.5681 22.6522 17.5571 22.5996 17.5571 22.5464C17.5571 22.4932 17.5681 22.4406 17.5896 22.392C17.611 22.3433 17.6423 22.2997 17.6815 22.2638C17.7179 22.2265 17.7613 22.1969 17.8093 22.1767C17.8572 22.1565 17.9088 22.1461 17.9608 22.1461C18.0128 22.1461 18.0644 22.1565 18.1123 22.1767C18.1603 22.1969 18.2037 22.2265 18.2401 22.2638L22.2775 26.3017C22.3409 26.3641 22.4264 26.3989 22.5154 26.3982C22.6044 26.3976 22.6894 26.3617 22.7519 26.2983C22.8144 26.2349 22.8491 26.1494 22.8485 26.0604C22.8478 25.9714 22.8119 25.8864 22.7485 25.8239L18.7112 21.786C18.6398 21.7079 18.6003 21.6058 18.6003 21.5C18.6003 21.3941 18.6398 21.2921 18.7112 21.214C18.7488 21.1763 18.7933 21.1465 18.8424 21.1261C18.8915 21.1057 18.9441 21.0952 18.9972 21.0952C19.0504 21.0952 19.103 21.1057 19.1521 21.1261C19.2012 21.1465 19.2457 21.1763 19.2833 21.214L24.4577 26.4557C24.7069 26.7063 24.9027 27.0049 25.0334 27.3333C25.164 27.6617 25.2268 28.0132 25.218 28.3666C25.2037 28.9662 25.3162 29.562 25.5481 30.1152C25.78 30.6683 26.1262 31.1662 26.5638 31.5763L32.2429 36.9795C31.9185 37.168 31.5856 37.3414 31.2452 37.4991C34.5715 36.046 37.2059 33.1127 38.1346 29.3145C39.7153 22.8498 35.756 16.3277 29.2913 14.747ZM30.0737 11.5468C38.3059 13.5597 43.3476 21.8649 41.3347 30.097C39.3218 38.3291 31.0166 43.3709 22.7845 41.358C14.5524 39.3451 9.51066 31.0399 11.5235 22.8078C13.5364 14.5757 21.8416 9.53394 30.0737 11.5468Z" fill="white"/>
<path d="M35.0542 31.6768C33.8093 32.9418 31.1851 32.3026 29.1665 30.3176C28.0772 29.3031 27.3654 27.9482 27.1478 26.4756C27.0399 25.0271 26.4028 23.669 25.358 22.6602L19.1338 16.7455C19.427 16.5325 19.7326 16.3371 20.0489 16.1602L24.1467 20.0562L26.0106 22.0075L26.1116 22.1018C26.7069 22.9676 27.0643 23.9746 27.1478 25.022C27.3646 26.4911 28.0768 27.8419 29.1665 28.8508C31.1851 30.8694 33.7959 31.4548 35.0407 30.1966C35.3198 29.9057 35.511 29.5418 35.5923 29.147C35.7223 29.5799 35.7411 30.0386 35.6471 30.4808C35.553 30.9229 35.3491 31.3342 35.0542 31.6768Z" fill="#BDBDBD"/>
<path d="M31.0305 37.5983C30.6998 37.7503 30.3605 37.8829 30.0144 37.9953L25.9099 33.6822C25.499 33.2456 25.0009 32.9001 24.448 32.6683C23.8951 32.4365 23.2996 32.3234 22.7002 32.3364C22.3501 32.3488 22.0013 32.2896 21.675 32.1623C21.3487 32.035 21.0519 31.8424 20.8027 31.5963L20.0559 30.8427L15.6081 26.3949C15.568 26.3596 15.5359 26.3161 15.5138 26.2674C15.4918 26.2186 15.4805 26.1658 15.4805 26.1123C15.4805 26.0588 15.4918 26.006 15.5138 25.9573C15.5359 25.9085 15.568 25.865 15.6081 25.8297C15.6832 25.7577 15.7833 25.7175 15.8873 25.7175C15.9914 25.7175 16.0914 25.7577 16.1666 25.8297L20.2039 29.867C20.2544 29.9125 20.3181 29.941 20.3857 29.9483C20.4534 29.9555 20.5216 29.9412 20.5807 29.9074L20.796 30.116C21.0406 30.3745 21.3361 30.5796 21.6637 30.7186C21.9914 30.8575 22.3443 30.9273 22.7002 30.9235C23.292 30.9049 23.8812 31.0108 24.4295 31.2346C24.9778 31.4583 25.473 31.7947 25.8829 32.2221C26.0719 32.531 26.2978 32.8157 26.5557 33.0699L27.9961 34.4157L31.0305 37.5983Z" fill="#BDBDBD"/>
<path d="M66.026 10.7365V35.801H86.3514V30.1843H72.5554V25.4101H84.8419V20.3551H72.5554V15.9671H86.0004V10.7365H66.026ZM98.2016 17.0553C92.9008 17.0553 89.7765 19.0913 89.5659 23.1986H95.1475C95.4284 21.6891 96.4464 20.9168 98.1314 20.9168C99.676 20.9168 101.01 21.6189 101.01 22.8124C101.01 24.1113 100.167 24.4623 98.4473 24.6729C97.0783 24.8485 95.7794 25.0591 94.2348 25.3399C91.1807 25.8665 88.8287 27.376 88.8287 30.8162C88.8287 34.2213 91.1105 36.3276 95.0422 36.3276C97.6399 36.3276 99.676 35.5202 101.045 34.0809C101.185 35.134 101.256 35.5904 101.396 35.801H107.399C106.872 34.783 106.697 33.3086 106.697 32.0449V23.0581C106.697 19.2669 104.345 17.0553 98.2016 17.0553ZM94.7965 30.5705C94.7965 29.3418 95.6039 28.6046 97.2538 28.2536L99.3249 27.7972C100.167 27.6217 100.764 27.4111 100.94 27.2707V27.9728C100.94 31.2726 99.9217 32.6416 97.324 32.6416C95.7443 32.6416 94.7965 31.9746 94.7965 30.5705ZM111.955 12.0705V17.5819H108.936V21.4433H111.955V29.7631C111.955 34.8532 113.745 35.9765 118.308 35.9765C119.397 35.9765 120.871 35.8361 121.608 35.801V31.413C120.906 31.413 120.59 31.4832 120.064 31.4832C118.273 31.4832 117.922 30.746 117.922 29.7631V21.4433H121.608V17.5819H117.922V12.0705H111.955ZM132.655 17.0553C127.354 17.0553 124.23 19.0913 124.019 23.1986H129.601C129.881 21.6891 130.899 20.9168 132.584 20.9168C134.129 20.9168 135.463 21.6189 135.463 22.8124C135.463 24.1113 134.62 24.4623 132.9 24.6729C131.531 24.8485 130.232 25.0591 128.688 25.3399C125.634 25.8665 123.282 27.376 123.282 30.8162C123.282 34.2213 125.564 36.3276 129.495 36.3276C132.093 36.3276 134.129 35.5202 135.498 34.0809C135.638 35.134 135.709 35.5904 135.849 35.801H141.852C141.325 34.783 141.15 33.3086 141.15 32.0449V23.0581C141.15 19.2669 138.798 17.0553 132.655 17.0553ZM129.249 30.5705C129.249 29.3418 130.057 28.6046 131.707 28.2536L133.778 27.7972C134.62 27.6217 135.217 27.4111 135.393 27.2707V27.9728C135.393 31.2726 134.375 32.6416 131.777 32.6416C130.197 32.6416 129.249 31.9746 129.249 30.5705ZM156.693 17.0553C154.446 17.0553 152.024 18.2839 150.936 20.0743H150.866V17.5819H145.074V35.801H151.041V26.0069C151.041 23.6549 152.165 21.9699 154.271 21.9699C156.237 21.9699 157.255 22.9879 157.255 25.024V35.801H163.223V23.9709C163.223 19.3722 161.046 17.0553 156.693 17.0553ZM175.856 17.0553C170.239 17.0553 166.308 20.987 166.308 26.9898C166.308 32.7469 170.555 36.3276 175.856 36.3276C180.736 36.3276 184.457 33.5543 185.018 28.6397H179.226C178.945 30.746 177.822 31.764 175.856 31.764C173.539 31.764 172.275 29.7631 172.275 26.9547C172.275 23.2337 173.574 21.6189 176.137 21.6189C177.646 21.6189 179.015 22.672 179.051 24.2517H184.843C184.421 19.6881 180.665 17.0553 175.856 17.0553ZM196.946 17.0553C191.821 17.0553 187.117 20.8817 187.117 26.6388C187.117 32.6767 191.118 36.3276 197.086 36.3276C201.509 36.3276 205.09 34.2213 206.143 30.2896H200.562C200.07 31.5183 198.736 32.2906 197.156 32.2906C194.769 32.2906 193.225 30.8162 193.084 28.1483H206.459V27.4111C206.459 21.2327 202.914 17.0553 196.946 17.0553ZM193.084 24.8134C193.47 22.4965 194.91 21.0923 196.911 21.0923C198.947 21.0923 200.351 22.7071 200.491 24.8134H193.084Z" fill="white"/>
<path d="M66.0174 44.9572V56.5254H68.5611V52.005H71.121C72.725 52.005 72.9842 52.8961 73.1138 54.5163C73.1786 55.3426 73.2435 56.0393 73.4379 56.5254H75.9816C75.69 56.1203 75.5765 55.5047 75.5279 54.4029C75.4793 53.3174 75.4307 51.5352 73.8105 51.0815V51.0491C75.0257 50.563 75.6413 49.6071 75.6413 48.1489C75.6413 46.3667 74.2966 44.9572 72.2551 44.9572H66.0174ZM68.5611 50.1904V46.9338H71.3478C72.4658 46.9338 73.0976 47.3875 73.0976 48.5378C73.0976 49.7529 72.4334 50.1904 71.364 50.1904H68.5611ZM87.6581 47.9221C85.1305 47.9221 83.3807 49.8178 83.3807 52.3453C83.3807 54.9214 85.0009 56.7522 87.6581 56.7522C89.6671 56.7522 90.9633 55.8287 91.5789 53.9331H89.5537C89.3755 54.5163 88.5978 55.0186 87.7229 55.0186C86.4105 55.0186 85.7462 54.3381 85.6814 52.8961H91.7248C91.7248 52.8961 91.741 52.6045 91.741 52.4749C91.741 49.996 90.299 47.9221 87.6581 47.9221ZM85.6814 51.438C85.7786 50.3362 86.4591 49.6557 87.577 49.6557C88.6464 49.6557 89.1972 50.1742 89.4241 51.438H85.6814ZM102.843 47.9221C100.494 47.9221 99.1974 48.8294 99.1974 50.6117C99.1974 51.8106 99.9913 52.4587 101.936 52.8637C103.75 53.2364 104.463 53.528 104.463 54.1437C104.463 54.8728 103.734 55.213 102.956 55.213C102 55.213 101.19 54.7432 101.19 53.8035H99.003C99.0678 55.7801 100.656 56.7522 102.94 56.7522C104.901 56.7522 106.764 55.9907 106.764 53.8359C106.764 53.204 106.553 52.7179 106.116 52.3291C105.613 51.9078 104.998 51.6486 103.297 51.3083C102 51.0491 101.498 50.7737 101.498 50.239C101.498 49.7367 101.887 49.4613 102.778 49.4613C103.734 49.4613 104.285 49.7854 104.35 50.5955H106.537C106.391 48.8618 105.111 47.9221 102.843 47.9221ZM115.045 45.6376V48.1489H113.651V49.6881H115.045V54.5974C115.045 56.0879 115.903 56.6226 117.669 56.6226C118.123 56.6226 118.642 56.6064 119.03 56.5416V54.7432C118.836 54.7918 118.577 54.808 118.318 54.808C117.54 54.808 117.345 54.6136 117.345 53.8359V49.6881H119.03V48.1489H117.345V45.6376H115.045ZM130.3 47.9221C127.951 47.9221 126.444 48.8942 126.347 50.7251H128.647C128.728 49.8502 129.231 49.4613 130.187 49.4613C130.964 49.4613 131.661 49.6233 131.661 50.5793C131.661 51.3245 131.013 51.4542 129.522 51.6162C128.129 51.762 127.351 52.005 126.817 52.4587C126.347 52.8637 126.087 53.4308 126.087 54.2409C126.087 55.8611 127.222 56.7522 128.939 56.7522C130.122 56.7522 131.11 56.3958 131.758 55.7153C131.774 55.9907 131.839 56.2662 131.92 56.5254H134.253C134.043 56.1851 133.962 55.4075 133.962 54.7432V50.3038C133.962 48.7484 132.746 47.9221 130.3 47.9221ZM128.388 54.1437C128.388 53.2364 129.085 52.9771 130.268 52.8313C131.045 52.7341 131.45 52.6207 131.661 52.4263V53.3174C131.661 54.5487 131.029 55.213 129.798 55.213C128.793 55.213 128.388 54.808 128.388 54.1437ZM142.066 48.1489V53.3498C142.066 55.6505 142.925 56.7522 145.112 56.7522C146.133 56.7522 147.105 56.2986 147.688 55.3588H147.737V56.5254H149.924V48.1489H147.623V52.5559C147.623 54.2085 147.105 54.9376 145.841 54.9376C144.707 54.9376 144.367 54.1761 144.367 52.8961V48.1489H142.066ZM162.882 47.9221C161.732 47.9221 160.646 48.6512 160.209 49.7043H160.176V48.1489H157.989V56.5254H160.29V52.7503C160.29 51.2111 160.889 50.0608 162.558 50.0608C162.882 50.0608 163.158 50.0932 163.384 50.1418V48.0031C163.271 47.9707 163.109 47.9221 162.882 47.9221ZM174.224 47.9221C171.875 47.9221 170.368 48.8942 170.271 50.7251H172.571C172.652 49.8502 173.155 49.4613 174.11 49.4613C174.888 49.4613 175.585 49.6233 175.585 50.5793C175.585 51.3245 174.937 51.4542 173.446 51.6162C172.053 51.762 171.275 52.005 170.74 52.4587C170.271 52.8637 170.011 53.4308 170.011 54.2409C170.011 55.8611 171.146 56.7522 172.863 56.7522C174.046 56.7522 175.034 56.3958 175.682 55.7153C175.698 55.9907 175.763 56.2662 175.844 56.5254H178.177C177.967 56.1851 177.886 55.4075 177.886 54.7432V50.3038C177.886 48.7484 176.67 47.9221 174.224 47.9221ZM172.312 54.1437C172.312 53.2364 173.009 52.9771 174.191 52.8313C174.969 52.7341 175.374 52.6207 175.585 52.4263V53.3174C175.585 54.5487 174.953 55.213 173.722 55.213C172.717 55.213 172.312 54.808 172.312 54.1437ZM190.802 47.9221C189.717 47.9221 188.777 48.4244 188.226 49.3155H188.177V48.1489H185.99V56.5254H188.291V52.167C188.291 50.6765 188.647 49.7367 190.073 49.7367C191.142 49.7367 191.547 50.401 191.547 51.7782V56.5254H193.848V51.3083C193.848 48.9591 192.925 47.9221 190.802 47.9221ZM202.529 45.6376V48.1489H201.135V49.6881H202.529V54.5974C202.529 56.0879 203.387 56.6226 205.153 56.6226C205.607 56.6226 206.126 56.6064 206.514 56.5416V54.7432C206.32 54.7918 206.061 54.808 205.801 54.808C205.024 54.808 204.829 54.6136 204.829 53.8359V49.6881H206.514V48.1489H204.829V45.6376H202.529Z" fill="white"/>
</svg>
