<svg width="207" height="69" viewBox="0 0 207 69" fill="none" xmlns="http://www.w3.org/2000/svg">
<path d="M25.7447 0.841797C11.6643 0.841797 0.209961 12.2978 0.209961 26.3766C0.209961 45.2137 23.7684 67.603 24.7718 68.5421C25.0356 68.7891 25.3834 68.9266 25.7447 68.9266C26.1061 68.9266 26.4539 68.7891 26.7176 68.5421C27.7195 67.5966 51.2779 45.2072 51.2779 26.3701C51.2779 12.2978 39.8251 0.841797 25.7447 0.841797ZM25.7447 40.5615C22.9388 40.5618 20.1957 39.73 17.8625 38.1713C15.5293 36.6126 13.7107 34.397 12.6368 31.8046C11.5628 29.2123 11.2818 26.3598 11.8291 23.6077C12.3765 20.8556 13.7276 18.3277 15.7117 16.3436C17.6959 14.3595 20.2238 13.0083 22.9759 12.4609C25.7279 11.9136 28.5805 12.1947 31.1728 13.2686C33.7651 14.3426 35.9807 16.1611 37.5394 18.4943C39.0982 20.8276 39.9299 23.5706 39.9296 26.3766C39.925 30.1372 38.429 33.7425 35.7698 36.4016C33.1106 39.0608 29.5054 40.5568 25.7447 40.5615V40.5615Z" fill="black"/>
<path d="M37.4498 29.315C39.0305 22.8502 35.0712 16.3281 28.6065 14.7474C22.1417 13.1667 15.6196 17.126 14.0389 23.5907C12.4582 30.0554 16.4175 36.5776 22.8822 38.1583C29.3469 39.739 35.8691 35.7797 37.4498 29.315Z" fill="white"/>
<path fill-rule="evenodd" clip-rule="evenodd" d="M29.3882 11.5468C37.6203 13.5597 42.662 21.8649 40.6492 30.097C38.6363 38.3291 30.3311 43.3709 22.0989 41.358C13.8668 39.3451 8.82511 31.0399 10.838 22.8078C12.8508 14.5757 21.1561 9.53395 29.3882 11.5468ZM28.6057 14.747C35.0704 16.3277 39.0297 22.8498 37.449 29.3145C35.8683 35.7793 29.3462 39.7386 22.8814 38.1578C16.4167 36.5771 12.4574 30.055 14.0381 23.5903C15.6188 17.1255 22.141 13.1663 28.6057 14.747Z" fill="#CCCCCC"/>
<path d="M34.3689 30.2109C33.1241 31.4557 30.4864 30.8837 28.4947 28.8651C27.4052 27.8561 26.6932 26.5051 26.4767 25.036C26.3691 23.5856 25.7321 22.2253 24.6868 21.214L19.3975 16.1613C19.7825 15.9285 20.1826 15.7217 20.5953 15.5422L25.3592 20.5484C26.3592 21.594 27.7113 22.2317 29.1542 22.3383C30.6273 22.5542 31.9827 23.2663 32.9963 24.3569C35.008 26.3351 35.6137 28.9661 34.3689 30.2109Z" fill="black"/>
<path d="M31.5554 36.9797C31.1614 37.2087 30.7548 37.4153 30.3376 37.5987L25.2237 32.2158C24.8144 31.7771 24.3166 31.4303 23.7633 31.1983C23.21 30.9663 22.6138 30.8544 22.014 30.87C21.6622 30.8781 21.3124 30.8142 20.9861 30.6823C20.6598 30.5504 20.3639 30.3533 20.1166 30.1029L14.9221 24.915C14.8825 24.8779 14.851 24.8331 14.8295 24.7833C14.808 24.7335 14.7969 24.6799 14.7969 24.6256C14.7969 24.5714 14.808 24.5178 14.8295 24.468C14.851 24.4182 14.8825 24.3734 14.9221 24.3363C14.9972 24.2643 15.0973 24.2241 15.2013 24.2241C15.3054 24.2241 15.4054 24.2643 15.4806 24.3363L19.5179 28.3736C19.5819 28.4342 19.6654 28.47 19.7534 28.4745C19.8434 28.4699 19.929 28.4342 19.9957 28.3736C20.0571 28.3106 20.0916 28.2261 20.0916 28.138C20.0916 28.05 20.0571 27.9655 19.9957 27.9025L15.9578 23.8655C15.9201 23.828 15.8902 23.7835 15.8699 23.7344C15.8495 23.6853 15.839 23.6327 15.839 23.5795C15.839 23.5264 15.8495 23.4738 15.8699 23.4247C15.8902 23.3756 15.9201 23.3311 15.9578 23.2935C16.034 23.2211 16.1352 23.1808 16.2404 23.1808C16.3456 23.1808 16.4467 23.2211 16.523 23.2935L20.5603 27.3308C20.5905 27.363 20.627 27.3887 20.6675 27.4062C20.708 27.4237 20.7517 27.4328 20.7958 27.4328C20.84 27.4328 20.8836 27.4237 20.9241 27.4062C20.9646 27.3887 21.0011 27.363 21.0313 27.3308C21.0633 27.3012 21.0889 27.2653 21.1063 27.2254C21.1238 27.1854 21.1328 27.1423 21.1328 27.0987C21.1328 27.0551 21.1238 27.012 21.1063 26.972C21.0889 26.9321 21.0633 26.8962 21.0313 26.8665L16.994 22.8293C16.9548 22.7934 16.9235 22.7497 16.9021 22.701C16.8806 22.6524 16.8696 22.5998 16.8696 22.5466C16.8696 22.4935 16.8806 22.4409 16.9021 22.3922C16.9235 22.3436 16.9548 22.2999 16.994 22.264C17.0304 22.2268 17.0738 22.1972 17.1218 22.177C17.1697 22.1568 17.2213 22.1464 17.2733 22.1464C17.3253 22.1464 17.3769 22.1568 17.4248 22.177C17.4728 22.1972 17.5162 22.2268 17.5526 22.264L21.59 26.3019C21.6534 26.3644 21.7389 26.3991 21.8279 26.3985C21.9169 26.3978 22.0019 26.3619 22.0644 26.2985C22.1269 26.2352 22.1616 26.1496 22.161 26.0606C22.1603 25.9717 22.1244 25.8866 22.061 25.8241L18.0237 21.7862C17.9523 21.7081 17.9128 21.6061 17.9128 21.5002C17.9128 21.3944 17.9523 21.2924 18.0237 21.2142C18.0613 21.1766 18.1058 21.1467 18.1549 21.1263C18.204 21.1059 18.2566 21.0955 18.3097 21.0955C18.3629 21.0955 18.4155 21.1059 18.4646 21.1263C18.5137 21.1467 18.5582 21.1766 18.5958 21.2142L23.7702 26.4559C24.0194 26.7066 24.2152 27.0051 24.3459 27.3336C24.4765 27.662 24.5393 28.0135 24.5305 28.3668C24.5162 28.9664 24.6287 29.5623 24.8606 30.1154C25.0925 30.6685 25.4387 31.1664 25.8763 31.5765L31.5554 36.9797Z" fill="black"/>
<path d="M34.3677 31.6768C33.1228 32.9418 30.4986 32.3026 28.48 30.3176C27.3907 29.3031 26.6788 27.9482 26.4613 26.4756C26.3534 25.0271 25.7163 23.669 24.6714 22.6602L18.4473 16.7455C18.7405 16.5325 19.046 16.3371 19.3623 16.1602L23.4602 20.0562L25.3241 22.0075L25.425 22.1018C26.0204 22.9676 26.3778 23.9746 26.4613 25.022C26.6781 26.4911 27.3903 27.8419 28.48 28.8508C30.4986 30.8694 33.1093 31.4548 34.3542 30.1966C34.6332 29.9057 34.8245 29.5418 34.9058 29.147C35.0358 29.5799 35.0546 30.0386 34.9605 30.4808C34.8665 30.9229 34.6626 31.3342 34.3677 31.6768Z" fill="#BDBDBD"/>
<path d="M30.344 37.5981C30.0133 37.7501 29.674 37.8827 29.3279 37.9951L25.2233 33.682C24.8125 33.2453 24.3144 32.8999 23.7615 32.6681C23.2085 32.4362 22.6131 32.3231 22.0136 32.3362C21.6636 32.3486 21.3148 32.2893 20.9885 32.1621C20.6622 32.0348 20.3654 31.8422 20.1162 31.5961L19.3693 30.8425L14.9216 26.3947C14.8815 26.3593 14.8493 26.3159 14.8273 26.2671C14.8053 26.2184 14.7939 26.1655 14.7939 26.1121C14.7939 26.0586 14.8053 26.0057 14.8273 25.957C14.8493 25.9083 14.8815 25.8648 14.9216 25.8294C14.9967 25.7575 15.0968 25.7173 15.2008 25.7173C15.3049 25.7173 15.4049 25.7575 15.4801 25.8294L19.5174 29.8667C19.5679 29.9123 19.6315 29.9408 19.6992 29.948C19.7669 29.9553 19.8351 29.941 19.8942 29.9072L20.1094 30.1157C20.3541 30.3742 20.6495 30.5794 20.9772 30.7183C21.3049 30.8573 21.6577 30.9271 22.0136 30.9232C22.6055 30.9046 23.1947 31.0106 23.743 31.2343C24.2913 31.458 24.7865 31.7945 25.1964 32.2219C25.3853 32.5308 25.6113 32.8155 25.8692 33.0697L27.3096 34.4155L30.344 37.5981Z" fill="#BDBDBD"/>
<path d="M65.3404 10.7366V35.801H85.6658V30.1843H71.8698V25.4102H84.1563V20.3552H71.8698V15.9671H85.3147V10.7366H65.3404ZM97.5159 17.0554C92.2152 17.0554 89.0909 19.0914 88.8803 23.1986H94.4619C94.7427 21.6891 95.7607 20.9168 97.4457 20.9168C98.9903 20.9168 100.324 21.6189 100.324 22.8125C100.324 24.1113 99.4818 24.4624 97.7617 24.673C96.3926 24.8485 95.0937 25.0591 93.5492 25.34C90.4951 25.8665 88.1431 27.376 88.1431 30.8162C88.1431 34.2213 90.4249 36.3276 94.3566 36.3276C96.9543 36.3276 98.9903 35.5202 100.359 34.0809C100.5 35.134 100.57 35.5904 100.71 35.801H106.713C106.187 34.783 106.011 33.3086 106.011 32.0449V23.0582C106.011 19.2669 103.659 17.0554 97.5159 17.0554ZM94.1108 30.5705C94.1108 29.3418 94.9182 28.6047 96.5681 28.2536L98.6393 27.7973C99.4818 27.6217 100.079 27.4111 100.254 27.2707V27.9728C100.254 31.2726 99.236 32.6416 96.6383 32.6416C95.0586 32.6416 94.1108 31.9747 94.1108 30.5705ZM111.269 12.0706V17.5819H108.25V21.4434H111.269V29.7631C111.269 34.8532 113.059 35.9765 117.623 35.9765C118.711 35.9765 120.185 35.8361 120.923 35.801V31.413C120.22 31.413 119.904 31.4832 119.378 31.4832C117.588 31.4832 117.237 30.746 117.237 29.7631V21.4434H120.923V17.5819H117.237V12.0706H111.269ZM131.969 17.0554C126.668 17.0554 123.544 19.0914 123.333 23.1986H128.915C129.196 21.6891 130.214 20.9168 131.899 20.9168C133.443 20.9168 134.777 21.6189 134.777 22.8125C134.777 24.1113 133.935 24.4624 132.215 24.673C130.845 24.8485 129.547 25.0591 128.002 25.34C124.948 25.8665 122.596 27.376 122.596 30.8162C122.596 34.2213 124.878 36.3276 128.809 36.3276C131.407 36.3276 133.443 35.5202 134.812 34.0809C134.953 35.134 135.023 35.5904 135.163 35.801H141.166C140.64 34.783 140.464 33.3086 140.464 32.0449V23.0582C140.464 19.2669 138.112 17.0554 131.969 17.0554ZM128.564 30.5705C128.564 29.3418 129.371 28.6047 131.021 28.2536L133.092 27.7973C133.935 27.6217 134.531 27.4111 134.707 27.2707V27.9728C134.707 31.2726 133.689 32.6416 131.091 32.6416C129.512 32.6416 128.564 31.9747 128.564 30.5705ZM156.007 17.0554C153.761 17.0554 151.338 18.284 150.25 20.0743H150.18V17.5819H144.388V35.801H150.356V26.0069C150.356 23.655 151.479 21.97 153.585 21.97C155.551 21.97 156.569 22.988 156.569 25.024V35.801H162.537V23.9709C162.537 19.3722 160.36 17.0554 156.007 17.0554ZM175.17 17.0554C169.553 17.0554 165.622 20.987 165.622 26.9899C165.622 32.747 169.869 36.3276 175.17 36.3276C180.05 36.3276 183.771 33.5544 184.332 28.6398H178.54C178.259 30.746 177.136 31.764 175.17 31.764C172.853 31.764 171.589 29.7631 171.589 26.9548C171.589 23.2337 172.888 21.6189 175.451 21.6189C176.96 21.6189 178.329 22.672 178.365 24.2517H184.157C183.736 19.6882 179.979 17.0554 175.17 17.0554ZM196.26 17.0554C191.135 17.0554 186.431 20.8817 186.431 26.6388C186.431 32.6767 190.432 36.3276 196.4 36.3276C200.823 36.3276 204.404 34.2213 205.457 30.2897H199.876C199.384 31.5183 198.05 32.2906 196.47 32.2906C194.083 32.2906 192.539 30.8162 192.398 28.1483H205.773V27.4111C205.773 21.2328 202.228 17.0554 196.26 17.0554ZM192.398 24.8134C192.784 22.4965 194.224 21.0923 196.225 21.0923C198.261 21.0923 199.665 22.7071 199.805 24.8134H192.398Z" fill="black"/>
<path d="M65.3318 44.9572V56.5254H67.8755V52.005H70.4354C72.0394 52.005 72.2986 52.8962 72.4283 54.5163C72.4931 55.3426 72.5579 56.0393 72.7523 56.5254H75.296C75.0044 56.1203 74.891 55.5047 74.8424 54.4029C74.7937 53.3174 74.7451 51.5352 73.1249 51.0815V51.0491C74.3401 50.5631 74.9558 49.6072 74.9558 48.149C74.9558 46.3668 73.611 44.9572 71.5696 44.9572H65.3318ZM67.8755 50.1904V46.9338H70.6622C71.7802 46.9338 72.4121 47.3875 72.4121 48.5378C72.4121 49.753 71.7478 50.1904 70.6784 50.1904H67.8755ZM86.9724 47.9221C84.4449 47.9221 82.6951 49.8178 82.6951 52.3453C82.6951 54.9214 84.3153 56.7522 86.9724 56.7522C88.9815 56.7522 90.2776 55.8287 90.8933 53.9331H88.8681C88.6898 54.5163 87.9121 55.0186 87.0372 55.0186C85.7249 55.0186 85.0606 54.3381 84.9958 52.8962H91.0391C91.0391 52.8962 91.0553 52.6045 91.0553 52.4749C91.0553 49.996 89.6134 47.9221 86.9724 47.9221ZM84.9958 51.438C85.093 50.3362 85.7735 49.6558 86.8914 49.6558C87.9607 49.6558 88.5116 50.1742 88.7384 51.438H84.9958ZM102.157 47.9221C99.8079 47.9221 98.5118 48.8295 98.5118 50.6117C98.5118 51.8106 99.3057 52.4587 101.25 52.8637C103.065 53.2364 103.777 53.528 103.777 54.1437C103.777 54.8728 103.048 55.213 102.271 55.213C101.315 55.213 100.505 54.7432 100.505 53.8035H98.3173C98.3822 55.7801 99.9699 56.7522 102.254 56.7522C104.215 56.7522 106.078 55.9907 106.078 53.8359C106.078 53.204 105.867 52.7179 105.43 52.3291C104.928 51.9078 104.312 51.6486 102.611 51.3084C101.315 51.0491 100.812 50.7737 100.812 50.239C100.812 49.7368 101.201 49.4613 102.092 49.4613C103.048 49.4613 103.599 49.7854 103.664 50.5955H105.851C105.705 48.8619 104.425 47.9221 102.157 47.9221ZM114.359 45.6377V48.149H112.966V49.6882H114.359V54.5974C114.359 56.0879 115.218 56.6226 116.984 56.6226C117.437 56.6226 117.956 56.6064 118.345 56.5416V54.7432C118.15 54.7918 117.891 54.808 117.632 54.808C116.854 54.808 116.66 54.6136 116.66 53.8359V49.6882H118.345V48.149H116.66V45.6377H114.359ZM129.614 47.9221C127.265 47.9221 125.758 48.8943 125.661 50.7251H127.962C128.043 49.8502 128.545 49.4613 129.501 49.4613C130.278 49.4613 130.975 49.6234 130.975 50.5793C130.975 51.3246 130.327 51.4542 128.837 51.6162C127.443 51.762 126.665 52.005 126.131 52.4587C125.661 52.8637 125.402 53.4308 125.402 54.2409C125.402 55.8611 126.536 56.7522 128.253 56.7522C129.436 56.7522 130.424 56.3958 131.072 55.7153C131.089 55.9907 131.153 56.2662 131.234 56.5254H133.567C133.357 56.1851 133.276 55.4075 133.276 54.7432V50.3038C133.276 48.7484 132.061 47.9221 129.614 47.9221ZM127.702 54.1437C127.702 53.2364 128.399 52.9772 129.582 52.8313C130.36 52.7341 130.765 52.6207 130.975 52.4263V53.3174C130.975 54.5488 130.343 55.213 129.112 55.213C128.107 55.213 127.702 54.808 127.702 54.1437ZM141.38 48.149V53.3498C141.38 55.6505 142.239 56.7522 144.426 56.7522C145.447 56.7522 146.419 56.2986 147.002 55.3588H147.051V56.5254H149.238V48.149H146.938V52.5559C146.938 54.2085 146.419 54.9376 145.155 54.9376C144.021 54.9376 143.681 54.1761 143.681 52.8962V48.149H141.38ZM162.196 47.9221C161.046 47.9221 159.96 48.6512 159.523 49.7044H159.491V48.149H157.303V56.5254H159.604V52.7503C159.604 51.2111 160.203 50.0608 161.872 50.0608C162.196 50.0608 162.472 50.0932 162.698 50.1418V48.0032C162.585 47.9708 162.423 47.9221 162.196 47.9221ZM173.538 47.9221C171.189 47.9221 169.682 48.8943 169.585 50.7251H171.885C171.966 49.8502 172.469 49.4613 173.425 49.4613C174.202 49.4613 174.899 49.6234 174.899 50.5793C174.899 51.3246 174.251 51.4542 172.76 51.6162C171.367 51.762 170.589 52.005 170.055 52.4587C169.585 52.8637 169.325 53.4308 169.325 54.2409C169.325 55.8611 170.46 56.7522 172.177 56.7522C173.36 56.7522 174.348 56.3958 174.996 55.7153C175.012 55.9907 175.077 56.2662 175.158 56.5254H177.491C177.281 56.1851 177.2 55.4075 177.2 54.7432V50.3038C177.2 48.7484 175.984 47.9221 173.538 47.9221ZM171.626 54.1437C171.626 53.2364 172.323 52.9772 173.506 52.8313C174.283 52.7341 174.688 52.6207 174.899 52.4263V53.3174C174.899 54.5488 174.267 55.213 173.036 55.213C172.031 55.213 171.626 54.808 171.626 54.1437ZM190.116 47.9221C189.031 47.9221 188.091 48.4244 187.54 49.3155H187.491V48.149H185.304V56.5254H187.605V52.1671C187.605 50.6765 187.961 49.7368 189.387 49.7368C190.456 49.7368 190.861 50.401 190.861 51.7782V56.5254H193.162V51.3084C193.162 48.9591 192.239 47.9221 190.116 47.9221ZM201.843 45.6377V48.149H200.449V49.6882H201.843V54.5974C201.843 56.0879 202.701 56.6226 204.467 56.6226C204.921 56.6226 205.44 56.6064 205.828 56.5416V54.7432C205.634 54.7918 205.375 54.808 205.115 54.808C204.338 54.808 204.143 54.6136 204.143 53.8359V49.6882H205.828V48.149H204.143V45.6377H201.843Z" fill="black"/>
</svg>
